# MagicaVoxel @ Ephtracy

# group
o 

# material
mtllib untitled.mtl
usemtl palette

# normals
vn -1 0 0
vn 1 0 0
vn 0 0 1
vn 0 0 -1
vn 0 -1 0
vn 0 1 0

# texcoords
vt 0.306641 0.5
vt 0.537109 0.5
vt 0.958984 0.5
vt 0.962891 0.5

# verts
v -0.5 0 0.5
v -0.5 0 -0.5
v -0.5 0.5 0
v -0.5 0.5 -0.1
v -0.5 0.5 -0.2
v -0.5 0.5 -0.3
v -0.5 0.6 0.4
v -0.5 0.6 0.3
v -0.5 0.6 0
v -0.5 0.6 -0.1
v -0.5 0.6 -0.2
v -0.5 0.6 -0.3
v -0.5 0.7 0.5
v -0.5 0.7 0.4
v -0.5 0.7 0.3
v -0.5 0.7 -0.1
v -0.5 0.7 -0.2
v -0.5 0.7 -0.5
v -0.5 1 0.5
v -0.5 1 -0.5
v 0.5 0 0.5
v 0.5 0 -0.5
v 0.5 0.6 0.1
v 0.5 0.6 0
v 0.5 0.6 -0.2
v 0.5 0.6 -0.3
v 0.5 0.7 0.5
v 0.5 0.7 0.1
v 0.5 0.7 0
v 0.5 0.7 -0.2
v 0.5 0.7 -0.3
v 0.5 0.7 -0.5
v 0.5 1 0.5
v 0.5 1 -0.5
v -0.5 0 0.5
v -0.5 0.7 0.5
v -0.5 1 0.5
v -0.3 0.6 0.5
v -0.3 0.7 0.5
v -0.2 0.5 0.5
v -0.2 0.6 0.5
v -0.2 0.7 0.5
v -0.1 0.5 0.5
v -0.1 0.6 0.5
v 0.1 0.4 0.5
v 0.1 0.5 0.5
v 0.2 0.4 0.5
v 0.2 0.5 0.5
v 0.2 0.6 0.5
v 0.2 0.7 0.5
v 0.3 0.6 0.5
v 0.3 0.7 0.5
v 0.5 0 0.5
v 0.5 0.7 0.5
v 0.5 1 0.5
v -0.5 0 -0.5
v -0.5 0.7 -0.5
v -0.5 1 -0.5
v -0.2 0.6 -0.5
v -0.2 0.7 -0.5
v -0.1 0.6 -0.5
v -0.1 0.7 -0.5
v 0.1 0.6 -0.5
v 0.1 0.7 -0.5
v 0.2 0.6 -0.5
v 0.2 0.7 -0.5
v 0.5 0 -0.5
v 0.5 0.7 -0.5
v 0.5 1 -0.5
v -0.5 0 0.5
v 0.5 0 0.5
v -0.5 0 -0.5
v 0.5 0 -0.5
v -0.5 1 0.5
v 0.5 1 0.5
v 0.1 1 0.4
v 0.2 1 0.4
v -0.3 1 0.3
v -0.1 1 0.3
v 0.1 1 0.3
v 0.2 1 0.3
v 0.2 1 0.2
v 0.4 1 0.2
v -0.3 1 0.1
v -0.1 1 0.1
v 0.2 1 0.1
v 0.4 1 0.1
v -0.1 1 -0.1
v 0.1 1 -0.1
v -0.3 1 -0.2
v -0.1 1 -0.2
v -0.3 1 -0.3
v -0.2 1 -0.3
v -0.1 1 -0.3
v 0.1 1 -0.3
v 0.2 1 -0.3
v 0.3 1 -0.3
v -0.2 1 -0.4
v -0.1 1 -0.4
v 0.2 1 -0.4
v 0.3 1 -0.4
v -0.5 1 -0.5
v 0.5 1 -0.5

# faces
f 3/2/1 2/2/1 1/2/1
f 4/2/1 2/2/1 3/2/1
f 5/2/1 2/2/1 4/2/1
f 6/2/1 2/2/1 5/2/1
f 7/2/1 3/2/1 1/2/1
f 8/2/1 3/2/1 7/2/1
f 9/3/1 4/3/1 3/3/1
f 9/2/1 3/2/1 8/2/1
f 10/2/1 5/2/1 4/2/1
f 10/3/1 4/3/1 9/3/1
f 11/3/1 6/3/1 5/3/1
f 11/2/1 5/2/1 10/2/1
f 12/2/1 2/2/1 6/2/1
f 12/3/1 6/3/1 11/3/1
f 13/2/1 7/2/1 1/2/1
f 14/3/1 8/3/1 7/3/1
f 14/2/1 7/2/1 13/2/1
f 15/2/1 9/2/1 8/2/1
f 15/3/1 8/3/1 14/3/1
f 15/2/1 10/2/1 9/2/1
f 16/3/1 11/3/1 10/3/1
f 16/2/1 10/2/1 15/2/1
f 17/2/1 12/2/1 11/2/1
f 17/3/1 11/3/1 16/3/1
f 18/2/1 2/2/1 12/2/1
f 18/2/1 12/2/1 17/2/1
f 19/3/1 15/3/1 14/3/1
f 19/3/1 14/3/1 13/3/1
f 19/3/1 18/3/1 17/3/1
f 19/3/1 17/3/1 16/3/1
f 19/3/1 16/3/1 15/3/1
f 20/3/1 18/3/1 19/3/1
f 21/2/2 22/2/2 23/2/2
f 23/2/2 22/2/2 24/2/2
f 24/2/2 22/2/2 25/2/2
f 25/2/2 22/2/2 26/2/2
f 21/2/2 23/2/2 27/2/2
f 23/3/2 24/3/2 28/3/2
f 27/2/2 23/2/2 28/2/2
f 24/2/2 25/2/2 29/2/2
f 28/3/2 24/3/2 29/3/2
f 25/3/2 26/3/2 30/3/2
f 29/2/2 25/2/2 30/2/2
f 26/2/2 22/2/2 31/2/2
f 30/3/2 26/3/2 31/3/2
f 31/2/2 22/2/2 32/2/2
f 29/3/2 30/3/2 33/3/2
f 27/3/2 28/3/2 33/3/2
f 31/3/2 32/3/2 33/3/2
f 30/3/2 31/3/2 33/3/2
f 28/3/2 29/3/2 33/3/2
f 33/3/2 32/3/2 34/3/2
f 38/2/3 36/2/3 35/2/3
f 39/3/3 37/3/3 36/3/3
f 39/2/3 36/2/3 38/2/3
f 40/2/3 38/2/3 35/2/3
f 41/3/3 39/3/3 38/3/3
f 41/2/3 38/2/3 40/2/3
f 42/3/3 37/3/3 39/3/3
f 42/3/3 39/3/3 41/3/3
f 43/3/3 41/3/3 40/3/3
f 43/2/3 40/2/3 35/2/3
f 44/2/3 42/2/3 41/2/3
f 44/3/3 41/3/3 43/3/3
f 45/2/3 43/2/3 35/2/3
f 45/2/3 44/2/3 43/2/3
f 46/2/3 44/2/3 45/2/3
f 47/2/3 45/2/3 35/2/3
f 47/3/3 46/3/3 45/3/3
f 48/2/3 44/2/3 46/2/3
f 48/3/3 46/3/3 47/3/3
f 49/2/3 42/2/3 44/2/3
f 49/2/3 44/2/3 48/2/3
f 50/3/3 37/3/3 42/3/3
f 50/2/3 42/2/3 49/2/3
f 51/2/3 49/2/3 48/2/3
f 51/2/3 48/2/3 47/2/3
f 51/3/3 50/3/3 49/3/3
f 52/3/3 37/3/3 50/3/3
f 52/3/3 50/3/3 51/3/3
f 53/2/3 51/2/3 47/2/3
f 53/2/3 47/2/3 35/2/3
f 53/2/3 52/2/3 51/2/3
f 54/3/3 37/3/3 52/3/3
f 54/2/3 52/2/3 53/2/3
f 55/3/3 37/3/3 54/3/3
f 56/2/4 57/2/4 59/2/4
f 57/3/4 58/3/4 60/3/4
f 59/2/4 57/2/4 60/2/4
f 56/2/4 59/2/4 61/2/4
f 59/3/4 60/3/4 61/3/4
f 60/3/4 58/3/4 62/3/4
f 61/3/4 60/3/4 62/3/4
f 56/2/4 61/2/4 63/2/4
f 61/2/4 62/2/4 63/2/4
f 62/3/4 58/3/4 64/3/4
f 63/2/4 62/2/4 64/2/4
f 56/2/4 63/2/4 65/2/4
f 63/3/4 64/3/4 65/3/4
f 64/3/4 58/3/4 66/3/4
f 65/3/4 64/3/4 66/3/4
f 56/2/4 65/2/4 67/2/4
f 65/2/4 66/2/4 67/2/4
f 66/3/4 58/3/4 68/3/4
f 67/2/4 66/2/4 68/2/4
f 68/3/4 58/3/4 69/3/4
f 72/2/5 71/2/5 70/2/5
f 73/2/5 71/2/5 72/2/5
f 74/3/6 75/3/6 76/3/6
f 76/3/6 75/3/6 77/3/6
f 74/3/6 76/3/6 78/3/6
f 78/3/6 76/3/6 79/3/6
f 76/4/6 77/4/6 80/4/6
f 79/3/6 76/3/6 80/3/6
f 77/3/6 75/3/6 81/3/6
f 80/4/6 77/4/6 81/4/6
f 79/3/6 80/3/6 82/3/6
f 81/3/6 75/3/6 82/3/6
f 80/3/6 81/3/6 82/3/6
f 82/3/6 75/3/6 83/3/6
f 74/3/6 78/3/6 84/3/6
f 78/4/6 79/4/6 84/4/6
f 79/3/6 82/3/6 85/3/6
f 84/4/6 79/4/6 85/4/6
f 82/4/6 83/4/6 86/4/6
f 85/3/6 82/3/6 86/3/6
f 83/3/6 75/3/6 87/3/6
f 86/4/6 83/4/6 87/4/6
f 85/3/6 86/3/6 88/3/6
f 84/3/6 85/3/6 88/3/6
f 86/3/6 87/3/6 88/3/6
f 88/3/6 87/3/6 89/3/6
f 74/3/6 84/3/6 90/3/6
f 84/3/6 88/3/6 90/3/6
f 88/4/6 89/4/6 91/4/6
f 90/3/6 88/3/6 91/3/6
f 74/3/6 90/3/6 92/3/6
f 90/4/6 91/4/6 92/4/6
f 92/4/6 91/4/6 93/4/6
f 91/4/6 89/4/6 94/4/6
f 93/4/6 91/4/6 94/4/6
f 89/3/6 87/3/6 95/3/6
f 94/4/6 89/4/6 95/4/6
f 95/3/6 87/3/6 96/3/6
f 96/3/6 87/3/6 97/3/6
f 93/4/6 94/4/6 98/4/6
f 92/3/6 93/3/6 98/3/6
f 94/3/6 95/3/6 99/3/6
f 98/4/6 94/4/6 99/4/6
f 95/3/6 96/3/6 99/3/6
f 96/4/6 97/4/6 100/4/6
f 99/3/6 96/3/6 100/3/6
f 97/3/6 87/3/6 101/3/6
f 100/4/6 97/4/6 101/4/6
f 99/3/6 100/3/6 102/3/6
f 98/3/6 99/3/6 102/3/6
f 100/3/6 101/3/6 102/3/6
f 92/3/6 98/3/6 102/3/6
f 74/3/6 92/3/6 102/3/6
f 87/3/6 75/3/6 103/3/6
f 102/3/6 101/3/6 103/3/6
f 101/3/6 87/3/6 103/3/6
