# MagicaVoxel @ Ephtracy

# group
o 

# material
mtllib Coin.mtl
usemtl palette

# normals
vn -1 0 0
vn 1 0 0
vn 0 0 1
vn 0 0 -1
vn 0 -1 0
vn 0 1 0

# texcoords
vt 0.0214844 0.5
vt 0.0371094 0.5
vt 0.0449219 0.5

# verts
v -0.5 0.2 0
v -0.5 0.2 -0.1
v -0.5 0.3 0
v -0.5 0.3 -0.1
v -0.5 0.8 0
v -0.5 0.8 -0.1
v -0.4 0.1 0
v -0.4 0.1 -0.1
v -0.4 0.2 0
v -0.4 0.2 -0.1
v -0.4 0.8 0
v -0.4 0.8 -0.1
v -0.4 0.9 0
v -0.4 0.9 -0.1
v -0.3 0 0
v -0.3 0 -0.1
v -0.3 0.1 0
v -0.3 0.1 -0.1
v -0.3 0.9 0
v -0.3 0.9 -0.1
v -0.3 1 0
v -0.3 1 -0.1
v -0.2 0.3 0
v -0.2 0.3 -0.1
v -0.2 0.7 0
v -0.2 0.7 -0.1
v 0.2 0.2 0
v 0.2 0.2 -0.1
v 0.2 0.3 0
v 0.2 0.3 -0.1
v 0.2 0.7 0
v 0.2 0.7 -0.1
v 0.2 0.8 0
v 0.2 0.8 -0.1
v 0.3 0.3 0
v 0.3 0.3 -0.1
v 0.3 0.5 0
v 0.3 0.5 -0.1
v -0.3 0.3 0
v -0.3 0.3 -0.1
v -0.3 0.7 0
v -0.3 0.7 -0.1
v -0.2 0.2 0
v -0.2 0.2 -0.1
v -0.2 0.3 0
v -0.2 0.3 -0.1
v -0.2 0.7 0
v -0.2 0.7 -0.1
v -0.2 0.8 0
v -0.2 0.8 -0.1
v 0.1 0.4 0
v 0.1 0.4 -0.1
v 0.1 0.5 0
v 0.1 0.5 -0.1
v 0.2 0.3 0
v 0.2 0.3 -0.1
v 0.2 0.4 0
v 0.2 0.4 -0.1
v 0.3 0 0
v 0.3 0 -0.1
v 0.3 0.1 0
v 0.3 0.1 -0.1
v 0.3 0.9 0
v 0.3 0.9 -0.1
v 0.3 1 0
v 0.3 1 -0.1
v 0.4 0.1 0
v 0.4 0.1 -0.1
v 0.4 0.2 0
v 0.4 0.2 -0.1
v 0.4 0.8 0
v 0.4 0.8 -0.1
v 0.4 0.9 0
v 0.4 0.9 -0.1
v 0.5 0.2 0
v 0.5 0.2 -0.1
v 0.5 0.7 0
v 0.5 0.7 -0.1
v 0.5 0.8 0
v 0.5 0.8 -0.1
v -0.5 0.2 0
v -0.5 0.3 0
v -0.5 0.8 0
v -0.4 0.1 0
v -0.4 0.2 0
v -0.4 0.3 0
v -0.4 0.8 0
v -0.4 0.9 0
v -0.3 0 0
v -0.3 0.1 0
v -0.3 0.2 0
v -0.3 0.3 0
v -0.3 0.7 0
v -0.3 0.8 0
v -0.3 0.9 0
v -0.3 1 0
v -0.2 0 0
v -0.2 0.1 0
v -0.2 0.2 0
v -0.2 0.3 0
v -0.2 0.7 0
v -0.2 0.8 0
v 0.1 0.4 0
v 0.1 0.5 0
v 0.2 0.2 0
v 0.2 0.3 0
v 0.2 0.4 0
v 0.2 0.7 0
v 0.2 0.8 0
v 0.2 0.9 0
v 0.2 1 0
v 0.3 0 0
v 0.3 0.1 0
v 0.3 0.3 0
v 0.3 0.5 0
v 0.3 0.8 0
v 0.3 0.9 0
v 0.3 1 0
v 0.4 0.1 0
v 0.4 0.2 0
v 0.4 0.3 0
v 0.4 0.7 0
v 0.4 0.8 0
v 0.4 0.9 0
v 0.5 0.2 0
v 0.5 0.7 0
v 0.5 0.8 0
v -0.5 0.2 -0.1
v -0.5 0.3 -0.1
v -0.5 0.8 -0.1
v -0.4 0.1 -0.1
v -0.4 0.2 -0.1
v -0.4 0.3 -0.1
v -0.4 0.8 -0.1
v -0.4 0.9 -0.1
v -0.3 0 -0.1
v -0.3 0.1 -0.1
v -0.3 0.2 -0.1
v -0.3 0.3 -0.1
v -0.3 0.7 -0.1
v -0.3 0.8 -0.1
v -0.3 0.9 -0.1
v -0.3 1 -0.1
v -0.2 0 -0.1
v -0.2 0.1 -0.1
v -0.2 0.2 -0.1
v -0.2 0.3 -0.1
v -0.2 0.7 -0.1
v -0.2 0.8 -0.1
v 0.1 0.4 -0.1
v 0.1 0.5 -0.1
v 0.2 0.2 -0.1
v 0.2 0.3 -0.1
v 0.2 0.4 -0.1
v 0.2 0.7 -0.1
v 0.2 0.8 -0.1
v 0.2 0.9 -0.1
v 0.2 1 -0.1
v 0.3 0 -0.1
v 0.3 0.1 -0.1
v 0.3 0.3 -0.1
v 0.3 0.5 -0.1
v 0.3 0.8 -0.1
v 0.3 0.9 -0.1
v 0.3 1 -0.1
v 0.4 0.1 -0.1
v 0.4 0.2 -0.1
v 0.4 0.3 -0.1
v 0.4 0.7 -0.1
v 0.4 0.8 -0.1
v 0.4 0.9 -0.1
v 0.5 0.2 -0.1
v 0.5 0.7 -0.1
v 0.5 0.8 -0.1
v -0.3 0 0
v -0.2 0 0
v 0.3 0 0
v -0.3 0 -0.1
v -0.2 0 -0.1
v 0.3 0 -0.1
v -0.4 0.1 0
v -0.3 0.1 0
v 0.3 0.1 0
v 0.4 0.1 0
v -0.4 0.1 -0.1
v -0.3 0.1 -0.1
v 0.3 0.1 -0.1
v 0.4 0.1 -0.1
v -0.5 0.2 0
v -0.4 0.2 0
v 0.4 0.2 0
v 0.5 0.2 0
v -0.5 0.2 -0.1
v -0.4 0.2 -0.1
v 0.4 0.2 -0.1
v 0.5 0.2 -0.1
v -0.2 0.3 0
v 0.2 0.3 0
v -0.2 0.3 -0.1
v 0.2 0.3 -0.1
v 0.1 0.5 0
v 0.3 0.5 0
v 0.1 0.5 -0.1
v 0.3 0.5 -0.1
v -0.3 0.7 0
v -0.2 0.7 0
v -0.3 0.7 -0.1
v -0.2 0.7 -0.1
v -0.2 0.8 0
v 0.2 0.8 0
v -0.2 0.8 -0.1
v 0.2 0.8 -0.1
v -0.2 0.2 0
v 0.2 0.2 0
v -0.2 0.2 -0.1
v 0.2 0.2 -0.1
v -0.3 0.3 0
v -0.2 0.3 0
v 0.2 0.3 0
v 0.3 0.3 0
v -0.3 0.3 -0.1
v -0.2 0.3 -0.1
v 0.2 0.3 -0.1
v 0.3 0.3 -0.1
v 0.1 0.4 0
v 0.2 0.4 0
v 0.1 0.4 -0.1
v 0.2 0.4 -0.1
v -0.2 0.7 0
v 0.2 0.7 0
v -0.2 0.7 -0.1
v 0.2 0.7 -0.1
v -0.5 0.8 0
v -0.4 0.8 0
v 0.4 0.8 0
v 0.5 0.8 0
v -0.5 0.8 -0.1
v -0.4 0.8 -0.1
v 0.4 0.8 -0.1
v 0.5 0.8 -0.1
v -0.4 0.9 0
v -0.3 0.9 0
v 0.3 0.9 0
v 0.4 0.9 0
v -0.4 0.9 -0.1
v -0.3 0.9 -0.1
v 0.3 0.9 -0.1
v 0.4 0.9 -0.1
v -0.3 1 0
v 0.2 1 0
v 0.3 1 0
v -0.3 1 -0.1
v 0.2 1 -0.1
v 0.3 1 -0.1

# faces
f 3/2/1 2/2/1 1/2/1
f 4/2/1 2/2/1 3/2/1
f 5/1/1 4/1/1 3/1/1
f 6/1/1 4/1/1 5/1/1
f 9/2/1 8/2/1 7/2/1
f 10/2/1 8/2/1 9/2/1
f 13/1/1 12/1/1 11/1/1
f 14/1/1 12/1/1 13/1/1
f 17/2/1 16/2/1 15/2/1
f 18/2/1 16/2/1 17/2/1
f 21/1/1 20/1/1 19/1/1
f 22/1/1 20/1/1 21/1/1
f 25/1/1 24/1/1 23/1/1
f 26/1/1 24/1/1 25/1/1
f 29/1/1 28/1/1 27/1/1
f 30/1/1 28/1/1 29/1/1
f 33/1/1 32/1/1 31/1/1
f 34/1/1 32/1/1 33/1/1
f 37/3/1 36/3/1 35/3/1
f 38/3/1 36/3/1 37/3/1
f 39/3/2 40/3/2 41/3/2
f 41/3/2 40/3/2 42/3/2
f 43/1/2 44/1/2 45/1/2
f 45/1/2 44/1/2 46/1/2
f 47/1/2 48/1/2 49/1/2
f 49/1/2 48/1/2 50/1/2
f 51/1/2 52/1/2 53/1/2
f 53/1/2 52/1/2 54/1/2
f 55/1/2 56/1/2 57/1/2
f 57/1/2 56/1/2 58/1/2
f 59/1/2 60/1/2 61/1/2
f 61/1/2 60/1/2 62/1/2
f 63/2/2 64/2/2 65/2/2
f 65/2/2 64/2/2 66/2/2
f 67/1/2 68/1/2 69/1/2
f 69/1/2 68/1/2 70/1/2
f 71/2/2 72/2/2 73/2/2
f 73/2/2 72/2/2 74/2/2
f 75/1/2 76/1/2 77/1/2
f 77/1/2 76/1/2 78/1/2
f 77/2/2 78/2/2 79/2/2
f 79/2/2 78/2/2 80/2/2
f 85/2/3 82/2/3 81/2/3
f 86/1/3 83/1/3 82/1/3
f 86/2/3 82/2/3 85/2/3
f 87/1/3 83/1/3 86/1/3
f 90/2/3 85/2/3 84/2/3
f 91/3/3 86/3/3 85/3/3
f 91/3/3 87/3/3 86/3/3
f 91/2/3 85/2/3 90/2/3
f 92/3/3 87/3/3 91/3/3
f 93/3/3 87/3/3 92/3/3
f 94/1/3 88/1/3 87/1/3
f 94/3/3 87/3/3 93/3/3
f 95/1/3 88/1/3 94/1/3
f 97/2/3 90/2/3 89/2/3
f 98/1/3 91/1/3 90/1/3
f 98/2/3 90/2/3 97/2/3
f 98/1/3 92/1/3 91/1/3
f 99/1/3 92/1/3 98/1/3
f 100/1/3 92/1/3 99/1/3
f 101/1/3 96/1/3 95/1/3
f 101/1/3 95/1/3 94/1/3
f 101/1/3 94/1/3 93/1/3
f 102/1/3 96/1/3 101/1/3
f 103/1/3 101/1/3 100/1/3
f 104/1/3 101/1/3 103/1/3
f 105/1/3 99/1/3 98/1/3
f 105/1/3 98/1/3 97/1/3
f 106/1/3 103/1/3 100/1/3
f 107/1/3 103/1/3 106/1/3
f 108/1/3 101/1/3 104/1/3
f 109/1/3 96/1/3 102/1/3
f 110/1/3 96/1/3 109/1/3
f 111/1/3 96/1/3 110/1/3
f 112/1/3 105/1/3 97/1/3
f 112/1/3 106/1/3 105/1/3
f 113/1/3 106/1/3 112/1/3
f 114/1/3 106/1/3 113/1/3
f 115/1/3 108/1/3 104/1/3
f 115/1/3 110/1/3 109/1/3
f 115/1/3 109/1/3 108/1/3
f 116/1/3 110/1/3 115/1/3
f 117/2/3 111/2/3 110/2/3
f 117/1/3 110/1/3 116/1/3
f 118/2/3 111/2/3 117/2/3
f 119/1/3 114/1/3 113/1/3
f 120/1/3 114/1/3 119/1/3
f 121/3/3 116/3/3 115/3/3
f 121/1/3 114/1/3 120/1/3
f 121/3/3 115/3/3 114/3/3
f 122/3/3 116/3/3 121/3/3
f 123/2/3 117/2/3 116/2/3
f 123/3/3 116/3/3 122/3/3
f 124/2/3 117/2/3 123/2/3
f 125/1/3 122/1/3 121/1/3
f 125/1/3 121/1/3 120/1/3
f 126/2/3 123/2/3 122/2/3
f 126/1/3 122/1/3 125/1/3
f 127/2/3 123/2/3 126/2/3
f 128/2/4 129/2/4 132/2/4
f 129/1/4 130/1/4 133/1/4
f 132/2/4 129/2/4 133/2/4
f 133/1/4 130/1/4 134/1/4
f 131/2/4 132/2/4 137/2/4
f 132/3/4 133/3/4 138/3/4
f 133/3/4 134/3/4 138/3/4
f 137/2/4 132/2/4 138/2/4
f 138/3/4 134/3/4 139/3/4
f 139/3/4 134/3/4 140/3/4
f 134/1/4 135/1/4 141/1/4
f 140/3/4 134/3/4 141/3/4
f 141/1/4 135/1/4 142/1/4
f 136/2/4 137/2/4 144/2/4
f 137/1/4 138/1/4 145/1/4
f 144/2/4 137/2/4 145/2/4
f 138/1/4 139/1/4 145/1/4
f 145/1/4 139/1/4 146/1/4
f 146/1/4 139/1/4 147/1/4
f 142/1/4 143/1/4 148/1/4
f 141/1/4 142/1/4 148/1/4
f 140/1/4 141/1/4 148/1/4
f 148/1/4 143/1/4 149/1/4
f 147/1/4 148/1/4 150/1/4
f 150/1/4 148/1/4 151/1/4
f 145/1/4 146/1/4 152/1/4
f 144/1/4 145/1/4 152/1/4
f 147/1/4 150/1/4 153/1/4
f 153/1/4 150/1/4 154/1/4
f 151/1/4 148/1/4 155/1/4
f 149/1/4 143/1/4 156/1/4
f 156/1/4 143/1/4 157/1/4
f 157/1/4 143/1/4 158/1/4
f 144/1/4 152/1/4 159/1/4
f 152/1/4 153/1/4 159/1/4
f 159/1/4 153/1/4 160/1/4
f 160/1/4 153/1/4 161/1/4
f 151/1/4 155/1/4 162/1/4
f 156/1/4 157/1/4 162/1/4
f 155/1/4 156/1/4 162/1/4
f 162/1/4 157/1/4 163/1/4
f 157/2/4 158/2/4 164/2/4
f 163/1/4 157/1/4 164/1/4
f 164/2/4 158/2/4 165/2/4
f 160/1/4 161/1/4 166/1/4
f 166/1/4 161/1/4 167/1/4
f 162/3/4 163/3/4 168/3/4
f 167/1/4 161/1/4 168/1/4
f 161/3/4 162/3/4 168/3/4
f 168/3/4 163/3/4 169/3/4
f 163/2/4 164/2/4 170/2/4
f 169/3/4 163/3/4 170/3/4
f 170/2/4 164/2/4 171/2/4
f 168/1/4 169/1/4 172/1/4
f 167/1/4 168/1/4 172/1/4
f 169/2/4 170/2/4 173/2/4
f 172/1/4 169/1/4 173/1/4
f 173/2/4 170/2/4 174/2/4
f 178/2/5 176/2/5 175/2/5
f 179/1/5 177/1/5 176/1/5
f 179/2/5 176/2/5 178/2/5
f 180/1/5 177/1/5 179/1/5
f 185/2/5 182/2/5 181/2/5
f 186/2/5 182/2/5 185/2/5
f 187/1/5 184/1/5 183/1/5
f 188/1/5 184/1/5 187/1/5
f 193/2/5 190/2/5 189/2/5
f 194/2/5 190/2/5 193/2/5
f 195/1/5 192/1/5 191/1/5
f 196/1/5 192/1/5 195/1/5
f 199/1/5 198/1/5 197/1/5
f 200/1/5 198/1/5 199/1/5
f 203/1/5 202/1/5 201/1/5
f 204/1/5 202/1/5 203/1/5
f 207/1/5 206/1/5 205/1/5
f 208/1/5 206/1/5 207/1/5
f 211/1/5 210/1/5 209/1/5
f 212/1/5 210/1/5 211/1/5
f 213/1/6 214/1/6 215/1/6
f 215/1/6 214/1/6 216/1/6
f 217/1/6 218/1/6 221/1/6
f 221/1/6 218/1/6 222/1/6
f 219/1/6 220/1/6 223/1/6
f 223/1/6 220/1/6 224/1/6
f 225/1/6 226/1/6 227/1/6
f 227/1/6 226/1/6 228/1/6
f 229/1/6 230/1/6 231/1/6
f 231/1/6 230/1/6 232/1/6
f 233/1/6 234/1/6 237/1/6
f 237/1/6 234/1/6 238/1/6
f 235/2/6 236/2/6 239/2/6
f 239/2/6 236/2/6 240/2/6
f 241/1/6 242/1/6 245/1/6
f 245/1/6 242/1/6 246/1/6
f 243/2/6 244/2/6 247/2/6
f 247/2/6 244/2/6 248/2/6
f 249/1/6 250/1/6 252/1/6
f 250/2/6 251/2/6 253/2/6
f 252/1/6 250/1/6 253/1/6
f 253/2/6 251/2/6 254/2/6
