# MagicaVoxel @ Ephtracy

# group
o 

# material
mtllib glider.mtl
usemtl palette

# normals
vn -1 0 0
vn 1 0 0
vn 0 0 1
vn 0 0 -1
vn 0 -1 0
vn 0 1 0

# texcoords
vt 0.306641 0.5
vt 0.845703 0.5

# verts
v -1 1.9 -0.5
v -1 1.9 -1.1
v -1 2 -0.5
v -1 2 -1.1
v -0.9 1.9 -0.1
v -0.9 1.9 -0.5
v -0.9 2 -0.1
v -0.9 2 -0.5
v -0.8 1.9 0.2
v -0.8 1.9 -0.1
v -0.8 2 0.2
v -0.8 2 -0.1
v -0.7 1.9 0.5
v -0.7 1.9 0.2
v -0.7 2 0.5
v -0.7 2 0.2
v -0.6 1.9 0.7
v -0.6 1.9 0.5
v -0.6 2 0.7
v -0.6 2 0.5
v -0.5 1.9 0.8
v -0.5 1.9 0.7
v -0.5 2 0.8
v -0.5 2 0.7
v -0.4 1.9 0.9
v -0.4 1.9 0.8
v -0.4 2 0.9
v -0.4 2 0.8
v -0.3 1.9 1
v -0.3 1.9 0.9
v -0.3 2 1
v -0.3 2 0.9
v 0.4 1.9 1
v 0.4 1.9 0.9
v 0.4 2 1
v 0.4 2 0.9
v 0.5 1.9 0.9
v 0.5 1.9 0.8
v 0.5 2 0.9
v 0.5 2 0.8
v 0.6 1.9 0.8
v 0.6 1.9 0.7
v 0.6 2 0.8
v 0.6 2 0.7
v 0.7 1.9 0.7
v 0.7 1.9 0.5
v 0.7 2 0.7
v 0.7 2 0.5
v 0.8 1.9 0.5
v 0.8 1.9 0.2
v 0.8 2 0.5
v 0.8 2 0.2
v 0.9 1.9 0.2
v 0.9 1.9 -0.1
v 0.9 2 0.2
v 0.9 2 -0.1
v 1 1.9 -0.1
v 1 1.9 -1.1
v 1 2 -0.1
v 1 2 -1.1
v -0.3 1.9 1
v -0.3 2 1
v 0.4 1.9 1
v 0.4 2 1
v -0.4 1.9 0.9
v -0.4 2 0.9
v -0.3 1.9 0.9
v -0.3 2 0.9
v 0.4 1.9 0.9
v 0.4 2 0.9
v 0.5 1.9 0.9
v 0.5 2 0.9
v -0.5 1.9 0.8
v -0.5 2 0.8
v -0.4 1.9 0.8
v -0.4 2 0.8
v 0.5 1.9 0.8
v 0.5 2 0.8
v 0.6 1.9 0.8
v 0.6 2 0.8
v -0.6 1.9 0.7
v -0.6 2 0.7
v -0.5 1.9 0.7
v -0.5 2 0.7
v 0.6 1.9 0.7
v 0.6 2 0.7
v 0.7 1.9 0.7
v 0.7 2 0.7
v -0.7 1.9 0.5
v -0.7 2 0.5
v -0.6 1.9 0.5
v -0.6 2 0.5
v 0.7 1.9 0.5
v 0.7 2 0.5
v 0.8 1.9 0.5
v 0.8 2 0.5
v -0.8 1.9 0.2
v -0.8 2 0.2
v -0.7 1.9 0.2
v -0.7 2 0.2
v 0.8 1.9 0.2
v 0.8 2 0.2
v 0.9 1.9 0.2
v 0.9 2 0.2
v -0.9 1.9 -0.1
v -0.9 2 -0.1
v -0.8 1.9 -0.1
v -0.8 2 -0.1
v 0.9 1.9 -0.1
v 0.9 2 -0.1
v 1 1.9 -0.1
v 1 2 -0.1
v -1 1.9 -0.5
v -1 2 -0.5
v -0.9 1.9 -0.5
v -0.9 2 -0.5
v -1 1.9 -1.1
v -1 2 -1.1
v 1 1.9 -1.1
v 1 2 -1.1
v -0.3 1.9 1
v 0.4 1.9 1
v -0.4 1.9 0.9
v -0.3 1.9 0.9
v 0.4 1.9 0.9
v 0.5 1.9 0.9
v -0.5 1.9 0.8
v -0.4 1.9 0.8
v -0.3 1.9 0.8
v 0.4 1.9 0.8
v 0.5 1.9 0.8
v 0.6 1.9 0.8
v -0.6 1.9 0.7
v -0.5 1.9 0.7
v -0.4 1.9 0.7
v 0.5 1.9 0.7
v 0.6 1.9 0.7
v 0.7 1.9 0.7
v -0.7 1.9 0.5
v -0.6 1.9 0.5
v -0.5 1.9 0.5
v 0.6 1.9 0.5
v 0.7 1.9 0.5
v 0.8 1.9 0.5
v -0.8 1.9 0.2
v -0.7 1.9 0.2
v -0.6 1.9 0.2
v 0.7 1.9 0.2
v 0.8 1.9 0.2
v 0.9 1.9 0.2
v -0.9 1.9 -0.1
v -0.8 1.9 -0.1
v -0.7 1.9 -0.1
v 0.8 1.9 -0.1
v 0.9 1.9 -0.1
v 1 1.9 -0.1
v -1 1.9 -0.5
v -0.9 1.9 -0.5
v -0.8 1.9 -0.5
v 0.9 1.9 -0.5
v -0.9 1.9 -0.6
v 0.9 1.9 -0.6
v -0.9 1.9 -1
v 0.9 1.9 -1
v -1 1.9 -1.1
v 1 1.9 -1.1
v -0.3 2 1
v 0.4 2 1
v -0.4 2 0.9
v -0.3 2 0.9
v 0.4 2 0.9
v 0.5 2 0.9
v -0.5 2 0.8
v -0.4 2 0.8
v -0.3 2 0.8
v 0.4 2 0.8
v 0.5 2 0.8
v 0.6 2 0.8
v -0.6 2 0.7
v -0.5 2 0.7
v -0.4 2 0.7
v 0.5 2 0.7
v 0.6 2 0.7
v 0.7 2 0.7
v -0.7 2 0.5
v -0.6 2 0.5
v -0.5 2 0.5
v 0.6 2 0.5
v 0.7 2 0.5
v 0.8 2 0.5
v -0.8 2 0.2
v -0.7 2 0.2
v -0.6 2 0.2
v 0.7 2 0.2
v 0.8 2 0.2
v 0.9 2 0.2
v -0.9 2 -0.1
v -0.8 2 -0.1
v -0.7 2 -0.1
v 0.8 2 -0.1
v 0.9 2 -0.1
v 1 2 -0.1
v -1 2 -0.5
v -0.9 2 -0.5
v -0.8 2 -0.5
v 0.9 2 -0.5
v -0.9 2 -0.6
v 0.9 2 -0.6
v -0.9 2 -1
v 0.9 2 -1
v -1 2 -1.1
v 1 2 -1.1

# faces
f 3/1/1 2/1/1 1/1/1
f 4/1/1 2/1/1 3/1/1
f 7/1/1 6/1/1 5/1/1
f 8/1/1 6/1/1 7/1/1
f 11/1/1 10/1/1 9/1/1
f 12/1/1 10/1/1 11/1/1
f 15/1/1 14/1/1 13/1/1
f 16/1/1 14/1/1 15/1/1
f 19/1/1 18/1/1 17/1/1
f 20/1/1 18/1/1 19/1/1
f 23/1/1 22/1/1 21/1/1
f 24/1/1 22/1/1 23/1/1
f 27/1/1 26/1/1 25/1/1
f 28/1/1 26/1/1 27/1/1
f 31/1/1 30/1/1 29/1/1
f 32/1/1 30/1/1 31/1/1
f 33/1/2 34/1/2 35/1/2
f 35/1/2 34/1/2 36/1/2
f 37/1/2 38/1/2 39/1/2
f 39/1/2 38/1/2 40/1/2
f 41/1/2 42/1/2 43/1/2
f 43/1/2 42/1/2 44/1/2
f 45/1/2 46/1/2 47/1/2
f 47/1/2 46/1/2 48/1/2
f 49/1/2 50/1/2 51/1/2
f 51/1/2 50/1/2 52/1/2
f 53/1/2 54/1/2 55/1/2
f 55/1/2 54/1/2 56/1/2
f 57/1/2 58/1/2 59/1/2
f 59/1/2 58/1/2 60/1/2
f 63/1/3 62/1/3 61/1/3
f 64/1/3 62/1/3 63/1/3
f 67/1/3 66/1/3 65/1/3
f 68/1/3 66/1/3 67/1/3
f 71/1/3 70/1/3 69/1/3
f 72/1/3 70/1/3 71/1/3
f 75/1/3 74/1/3 73/1/3
f 76/1/3 74/1/3 75/1/3
f 79/1/3 78/1/3 77/1/3
f 80/1/3 78/1/3 79/1/3
f 83/1/3 82/1/3 81/1/3
f 84/1/3 82/1/3 83/1/3
f 87/1/3 86/1/3 85/1/3
f 88/1/3 86/1/3 87/1/3
f 91/1/3 90/1/3 89/1/3
f 92/1/3 90/1/3 91/1/3
f 95/1/3 94/1/3 93/1/3
f 96/1/3 94/1/3 95/1/3
f 99/1/3 98/1/3 97/1/3
f 100/1/3 98/1/3 99/1/3
f 103/1/3 102/1/3 101/1/3
f 104/1/3 102/1/3 103/1/3
f 107/1/3 106/1/3 105/1/3
f 108/1/3 106/1/3 107/1/3
f 111/1/3 110/1/3 109/1/3
f 112/1/3 110/1/3 111/1/3
f 115/1/3 114/1/3 113/1/3
f 116/1/3 114/1/3 115/1/3
f 117/1/4 118/1/4 119/1/4
f 119/1/4 118/1/4 120/1/4
f 124/1/5 122/1/5 121/1/5
f 125/1/5 122/1/5 124/1/5
f 128/1/5 124/1/5 123/1/5
f 129/2/5 125/2/5 124/2/5
f 129/1/5 124/1/5 128/1/5
f 130/1/5 126/1/5 125/1/5
f 130/2/5 125/2/5 129/2/5
f 131/1/5 126/1/5 130/1/5
f 134/1/5 128/1/5 127/1/5
f 135/2/5 129/2/5 128/2/5
f 135/2/5 130/2/5 129/2/5
f 135/1/5 128/1/5 134/1/5
f 135/2/5 131/2/5 130/2/5
f 136/1/5 132/1/5 131/1/5
f 136/2/5 131/2/5 135/2/5
f 137/1/5 132/1/5 136/1/5
f 140/1/5 134/1/5 133/1/5
f 141/2/5 135/2/5 134/2/5
f 141/2/5 136/2/5 135/2/5
f 141/1/5 134/1/5 140/1/5
f 141/2/5 137/2/5 136/2/5
f 142/1/5 138/1/5 137/1/5
f 142/2/5 137/2/5 141/2/5
f 143/1/5 138/1/5 142/1/5
f 146/1/5 140/1/5 139/1/5
f 147/2/5 141/2/5 140/2/5
f 147/2/5 142/2/5 141/2/5
f 147/1/5 140/1/5 146/1/5
f 147/2/5 143/2/5 142/2/5
f 148/1/5 144/1/5 143/1/5
f 148/2/5 143/2/5 147/2/5
f 149/1/5 144/1/5 148/1/5
f 152/1/5 146/1/5 145/1/5
f 153/2/5 147/2/5 146/2/5
f 153/2/5 148/2/5 147/2/5
f 153/1/5 146/1/5 152/1/5
f 153/2/5 149/2/5 148/2/5
f 154/1/5 150/1/5 149/1/5
f 154/2/5 149/2/5 153/2/5
f 155/1/5 150/1/5 154/1/5
f 158/1/5 152/1/5 151/1/5
f 159/2/5 153/2/5 152/2/5
f 159/2/5 154/2/5 153/2/5
f 159/1/5 152/1/5 158/1/5
f 159/2/5 155/2/5 154/2/5
f 160/1/5 156/1/5 155/1/5
f 160/2/5 155/2/5 159/2/5
f 161/1/5 158/1/5 157/1/5
f 161/1/5 159/1/5 158/1/5
f 161/1/5 160/1/5 159/1/5
f 162/1/5 156/1/5 160/1/5
f 162/1/5 160/1/5 161/1/5
f 163/1/5 161/1/5 157/1/5
f 163/2/5 162/2/5 161/2/5
f 164/1/5 156/1/5 162/1/5
f 164/2/5 162/2/5 163/2/5
f 165/1/5 163/1/5 157/1/5
f 165/1/5 164/1/5 163/1/5
f 166/1/5 156/1/5 164/1/5
f 166/1/5 164/1/5 165/1/5
f 167/1/6 168/1/6 170/1/6
f 170/1/6 168/1/6 171/1/6
f 169/1/6 170/1/6 174/1/6
f 170/2/6 171/2/6 175/2/6
f 174/1/6 170/1/6 175/1/6
f 171/1/6 172/1/6 176/1/6
f 175/2/6 171/2/6 176/2/6
f 176/1/6 172/1/6 177/1/6
f 173/1/6 174/1/6 180/1/6
f 174/2/6 175/2/6 181/2/6
f 175/2/6 176/2/6 181/2/6
f 180/1/6 174/1/6 181/1/6
f 176/2/6 177/2/6 181/2/6
f 177/1/6 178/1/6 182/1/6
f 181/2/6 177/2/6 182/2/6
f 182/1/6 178/1/6 183/1/6
f 179/1/6 180/1/6 186/1/6
f 180/2/6 181/2/6 187/2/6
f 181/2/6 182/2/6 187/2/6
f 186/1/6 180/1/6 187/1/6
f 182/2/6 183/2/6 187/2/6
f 183/1/6 184/1/6 188/1/6
f 187/2/6 183/2/6 188/2/6
f 188/1/6 184/1/6 189/1/6
f 185/1/6 186/1/6 192/1/6
f 186/2/6 187/2/6 193/2/6
f 187/2/6 188/2/6 193/2/6
f 192/1/6 186/1/6 193/1/6
f 188/2/6 189/2/6 193/2/6
f 189/1/6 190/1/6 194/1/6
f 193/2/6 189/2/6 194/2/6
f 194/1/6 190/1/6 195/1/6
f 191/1/6 192/1/6 198/1/6
f 192/2/6 193/2/6 199/2/6
f 193/2/6 194/2/6 199/2/6
f 198/1/6 192/1/6 199/1/6
f 194/2/6 195/2/6 199/2/6
f 195/1/6 196/1/6 200/1/6
f 199/2/6 195/2/6 200/2/6
f 200/1/6 196/1/6 201/1/6
f 197/1/6 198/1/6 204/1/6
f 198/2/6 199/2/6 205/2/6
f 199/2/6 200/2/6 205/2/6
f 204/1/6 198/1/6 205/1/6
f 200/2/6 201/2/6 205/2/6
f 201/1/6 202/1/6 206/1/6
f 205/2/6 201/2/6 206/2/6
f 203/1/6 204/1/6 207/1/6
f 204/1/6 205/1/6 207/1/6
f 205/1/6 206/1/6 207/1/6
f 206/1/6 202/1/6 208/1/6
f 207/1/6 206/1/6 208/1/6
f 203/1/6 207/1/6 209/1/6
f 207/2/6 208/2/6 209/2/6
f 208/1/6 202/1/6 210/1/6
f 209/2/6 208/2/6 210/2/6
f 203/1/6 209/1/6 211/1/6
f 209/1/6 210/1/6 211/1/6
f 210/1/6 202/1/6 212/1/6
f 211/1/6 210/1/6 212/1/6
