# MagicaVoxel @ Ephtracy

# group
o 

# material
mtllib untitled.mtl
usemtl palette

# normals
vn -1 0 0
vn 1 0 0
vn 0 0 1
vn 0 0 -1
vn 0 -1 0
vn 0 1 0

# texcoords
vt 0.810547 0.5
vt 0.845703 0.5
vt 0.990234 0.5

# verts
v -0.4 0.1 0.2
v -0.4 0.1 -0.2
v -0.4 0.2 0.2
v -0.4 0.2 -0.2
v -0.2 0 0.5
v -0.2 0 0.4
v -0.2 0 -0.3
v -0.2 0.1 0.2
v -0.2 0.1 -0.2
v -0.2 0.1 -0.3
v -0.2 0.1 -0.4
v -0.2 0.2 0.2
v -0.2 0.2 -0.2
v -0.2 0.3 -0.3
v -0.2 0.3 -0.4
v -0.2 0.4 0.5
v -0.2 0.4 0.4
v -0.2 0.4 -0.3
v -0.1 0 -0.3
v -0.1 0 -0.4
v -0.1 0.1 -0.3
v -0.1 0.1 -0.4
v -0.1 0.1 -0.5
v -0.1 0.3 -0.3
v -0.1 0.3 -0.4
v -0.1 0.3 -0.5
v -0.1 0.4 -0.3
v -0.1 0.4 -0.4
v 0.1 0 -0.3
v 0.1 0 -0.4
v 0.1 0.1 -0.3
v 0.1 0.1 -0.4
v 0.1 0.1 -0.5
v 0.1 0.3 -0.3
v 0.1 0.3 -0.4
v 0.1 0.3 -0.5
v 0.1 0.4 -0.3
v 0.1 0.4 -0.4
v 0.2 0 0.5
v 0.2 0 0.4
v 0.2 0 -0.3
v 0.2 0.1 0.2
v 0.2 0.1 -0.2
v 0.2 0.1 -0.3
v 0.2 0.1 -0.4
v 0.2 0.2 0.2
v 0.2 0.2 -0.2
v 0.2 0.3 -0.3
v 0.2 0.3 -0.4
v 0.2 0.4 0.5
v 0.2 0.4 0.4
v 0.2 0.4 -0.3
v 0.4 0.1 0.2
v 0.4 0.1 -0.2
v 0.4 0.2 0.2
v 0.4 0.2 -0.2
v -0.2 0 0.5
v -0.2 0.4 0.5
v 0.2 0 0.5
v 0.2 0.4 0.5
v -0.4 0.1 0.2
v -0.4 0.2 0.2
v -0.2 0.1 0.2
v -0.2 0.2 0.2
v 0.2 0.1 0.2
v 0.2 0.2 0.2
v 0.4 0.1 0.2
v 0.4 0.2 0.2
v -0.4 0.1 -0.2
v -0.4 0.2 -0.2
v -0.2 0.1 -0.2
v -0.2 0.2 -0.2
v 0.2 0.1 -0.2
v 0.2 0.2 -0.2
v 0.4 0.1 -0.2
v 0.4 0.2 -0.2
v -0.2 0 -0.3
v -0.2 0.1 -0.3
v -0.2 0.3 -0.3
v -0.2 0.4 -0.3
v -0.1 0 -0.3
v -0.1 0.1 -0.3
v -0.1 0.3 -0.3
v -0.1 0.4 -0.3
v 0.1 0 -0.3
v 0.1 0.1 -0.3
v 0.1 0.3 -0.3
v 0.1 0.4 -0.3
v 0.2 0 -0.3
v 0.2 0.1 -0.3
v 0.2 0.3 -0.3
v 0.2 0.4 -0.3
v -0.2 0.1 -0.4
v -0.2 0.3 -0.4
v -0.1 0 -0.4
v -0.1 0.1 -0.4
v -0.1 0.3 -0.4
v -0.1 0.4 -0.4
v 0.1 0 -0.4
v 0.1 0.1 -0.4
v 0.1 0.3 -0.4
v 0.1 0.4 -0.4
v 0.2 0.1 -0.4
v 0.2 0.3 -0.4
v -0.1 0.1 -0.5
v -0.1 0.3 -0.5
v 0.1 0.1 -0.5
v 0.1 0.3 -0.5
v -0.2 0 0.5
v 0.2 0 0.5
v -0.2 0 0.4
v 0.2 0 0.4
v -0.2 0 -0.3
v -0.1 0 -0.3
v 0.1 0 -0.3
v 0.2 0 -0.3
v -0.1 0 -0.4
v 0.1 0 -0.4
v -0.4 0.1 0.2
v -0.2 0.1 0.2
v 0.2 0.1 0.2
v 0.4 0.1 0.2
v -0.4 0.1 -0.2
v -0.2 0.1 -0.2
v 0.2 0.1 -0.2
v 0.4 0.1 -0.2
v -0.2 0.1 -0.3
v -0.1 0.1 -0.3
v 0.1 0.1 -0.3
v 0.2 0.1 -0.3
v -0.2 0.1 -0.4
v -0.1 0.1 -0.4
v 0.1 0.1 -0.4
v 0.2 0.1 -0.4
v -0.1 0.1 -0.5
v 0.1 0.1 -0.5
v -0.4 0.2 0.2
v -0.2 0.2 0.2
v 0.2 0.2 0.2
v 0.4 0.2 0.2
v -0.4 0.2 -0.2
v -0.2 0.2 -0.2
v 0.2 0.2 -0.2
v 0.4 0.2 -0.2
v -0.2 0.3 -0.3
v -0.1 0.3 -0.3
v 0.1 0.3 -0.3
v 0.2 0.3 -0.3
v -0.2 0.3 -0.4
v -0.1 0.3 -0.4
v 0.1 0.3 -0.4
v 0.2 0.3 -0.4
v -0.1 0.3 -0.5
v 0.1 0.3 -0.5
v -0.2 0.4 0.5
v 0.2 0.4 0.5
v -0.2 0.4 0.4
v 0.2 0.4 0.4
v -0.2 0.4 -0.3
v -0.1 0.4 -0.3
v 0.1 0.4 -0.3
v 0.2 0.4 -0.3
v -0.1 0.4 -0.4
v 0.1 0.4 -0.4

# faces
f 3/1/1 2/1/1 1/1/1
f 4/1/1 2/1/1 3/1/1
f 8/3/1 7/3/1 6/3/1
f 9/3/1 7/3/1 8/3/1
f 10/3/1 7/3/1 9/3/1
f 12/3/1 8/3/1 6/3/1
f 13/3/1 11/3/1 10/3/1
f 13/3/1 10/3/1 9/3/1
f 14/3/1 11/3/1 13/3/1
f 14/3/1 13/3/1 12/3/1
f 15/3/1 11/3/1 14/3/1
f 16/2/1 6/2/1 5/2/1
f 17/3/1 12/3/1 6/3/1
f 17/2/1 6/2/1 16/2/1
f 17/3/1 14/3/1 12/3/1
f 18/3/1 14/3/1 17/3/1
f 21/3/1 20/3/1 19/3/1
f 22/3/1 20/3/1 21/3/1
f 25/3/1 23/3/1 22/3/1
f 26/3/1 23/3/1 25/3/1
f 27/3/1 25/3/1 24/3/1
f 28/3/1 25/3/1 27/3/1
f 29/3/2 30/3/2 31/3/2
f 31/3/2 30/3/2 32/3/2
f 32/3/2 33/3/2 35/3/2
f 35/3/2 33/3/2 36/3/2
f 34/3/2 35/3/2 37/3/2
f 37/3/2 35/3/2 38/3/2
f 40/3/2 41/3/2 42/3/2
f 42/3/2 41/3/2 43/3/2
f 43/3/2 41/3/2 44/3/2
f 40/3/2 42/3/2 46/3/2
f 44/3/2 45/3/2 47/3/2
f 43/3/2 44/3/2 47/3/2
f 47/3/2 45/3/2 48/3/2
f 46/3/2 47/3/2 48/3/2
f 48/3/2 45/3/2 49/3/2
f 39/2/2 40/2/2 50/2/2
f 40/3/2 46/3/2 51/3/2
f 50/2/2 40/2/2 51/2/2
f 46/3/2 48/3/2 51/3/2
f 51/3/2 48/3/2 52/3/2
f 53/1/2 54/1/2 55/1/2
f 55/1/2 54/1/2 56/1/2
f 59/2/3 58/2/3 57/2/3
f 60/2/3 58/2/3 59/2/3
f 63/1/3 62/1/3 61/1/3
f 64/1/3 62/1/3 63/1/3
f 67/1/3 66/1/3 65/1/3
f 68/1/3 66/1/3 67/1/3
f 69/1/4 70/1/4 71/1/4
f 71/1/4 70/1/4 72/1/4
f 73/1/4 74/1/4 75/1/4
f 75/1/4 74/1/4 76/1/4
f 77/3/4 78/3/4 81/3/4
f 81/3/4 78/3/4 82/3/4
f 79/3/4 80/3/4 83/3/4
f 83/3/4 80/3/4 84/3/4
f 85/3/4 86/3/4 89/3/4
f 89/3/4 86/3/4 90/3/4
f 87/3/4 88/3/4 91/3/4
f 91/3/4 88/3/4 92/3/4
f 93/3/4 94/3/4 96/3/4
f 96/3/4 94/3/4 97/3/4
f 95/3/4 96/3/4 99/3/4
f 99/3/4 96/3/4 100/3/4
f 97/3/4 98/3/4 101/3/4
f 101/3/4 98/3/4 102/3/4
f 100/3/4 101/3/4 103/3/4
f 103/3/4 101/3/4 104/3/4
f 105/3/4 106/3/4 107/3/4
f 107/3/4 106/3/4 108/3/4
f 111/2/5 110/2/5 109/2/5
f 112/2/5 110/2/5 111/2/5
f 113/3/5 112/3/5 111/3/5
f 114/3/5 112/3/5 113/3/5
f 115/3/5 112/3/5 114/3/5
f 116/3/5 112/3/5 115/3/5
f 117/3/5 115/3/5 114/3/5
f 118/3/5 115/3/5 117/3/5
f 123/1/5 120/1/5 119/1/5
f 124/1/5 120/1/5 123/1/5
f 125/1/5 122/1/5 121/1/5
f 126/1/5 122/1/5 125/1/5
f 131/3/5 128/3/5 127/3/5
f 132/3/5 128/3/5 131/3/5
f 133/3/5 130/3/5 129/3/5
f 134/3/5 130/3/5 133/3/5
f 135/3/5 133/3/5 132/3/5
f 136/3/5 133/3/5 135/3/5
f 137/1/6 138/1/6 141/1/6
f 141/1/6 138/1/6 142/1/6
f 139/1/6 140/1/6 143/1/6
f 143/1/6 140/1/6 144/1/6
f 145/3/6 146/3/6 149/3/6
f 149/3/6 146/3/6 150/3/6
f 147/3/6 148/3/6 151/3/6
f 151/3/6 148/3/6 152/3/6
f 150/3/6 151/3/6 153/3/6
f 153/3/6 151/3/6 154/3/6
f 155/2/6 156/2/6 157/2/6
f 157/2/6 156/2/6 158/2/6
f 157/3/6 158/3/6 159/3/6
f 159/3/6 158/3/6 160/3/6
f 160/3/6 158/3/6 161/3/6
f 161/3/6 158/3/6 162/3/6
f 160/3/6 161/3/6 163/3/6
f 163/3/6 161/3/6 164/3/6
